<svg id="Calque_1" data-name="Calque 1" xmlns="http://www.w3.org/2000/svg" xmlns:xlink="http://www.w3.org/1999/xlink" viewBox="0 0 1080 1080"><defs><style>.cls-1,.cls-4{fill:none;}.cls-2{clip-path:url(#clip-path);}.cls-3{fill:#fff;}.cls-4{stroke:#fff;stroke-width:20px;}</style><clipPath id="clip-path"><rect class="cls-1" x="168.66" y="147.8" width="749.78" height="784.39"/></clipPath></defs><g id="Groupe_2511" data-name="Groupe 2511"><g class="cls-2"><g id="Groupe_2509" data-name="Groupe 2509"><g id="Groupe_2508" data-name="Groupe 2508"><path id="Tracé_1948" data-name="Tracé 1948" class="cls-3" d="M440.31,165.69l-7.7,2.13,3.89,14-8,2.21,1.89,6.78,8-2.21,8.25,29.79c2.39,8.6,6,9.35,14,7.14l5.88-1.63-1.88-6.79-3.53,1c-4.8,1.33-6,1-6.95-2.56l-8.06-29.06,9.33-2.58-1.89-6.79-9.32,2.58Zm47.05-2,6-.72,10.61-14.81-10.16,1.22ZM512,200.81a11.71,11.71,0,0,1-11.36,10.93A14.31,14.31,0,0,1,484,200.29a15.18,15.18,0,0,1-.25-2.61l36.1-4.36c-.94-11.71-8.09-27-25.16-25C481.49,170,473.26,181.72,475,196.18c2.24,14.68,10.8,24.43,26.19,22.58a19.59,19.59,0,0,0,18.63-18.9ZM482.88,190.7a13.94,13.94,0,0,1,27.68-3.34Zm54,24.23,8-.05-.42-67.07-8,.05ZM583,161.6l6,.72,13.83-11.86-10.17-1.23Zm15.1,42a11.71,11.71,0,0,1-13.66,7.91,14.33,14.33,0,0,1-13.1-17.67l36.12,4.36c1.87-11.6-1.43-28.18-18.48-30.24-13.15-1.61-24,7.89-25.7,22.35-1.32,14.8,4.68,26.31,20.08,28.17a19.59,19.59,0,0,0,22.57-13.93Zm-25.9-16.75a13.83,13.83,0,0,1,15.45-12,14,14,0,0,1,12.26,15.29Zm95.37,16.51c2.28-11.38-4.66-18.9-15.18-22.09-14.74-4.48-25.27,4.3-29.51,18.23s.33,26,14.53,30.34c11.69,3.56,20.84-1,26-11.83l-7.81-2.38a12.57,12.57,0,0,1-16.11,7.48l-.1,0c-9.71-3-11-12.58-8.41-21.12,2.88-9.44,8.94-17.11,20-13.75a11.3,11.3,0,0,1,8.69,12.76Zm4.37,36.88,7.08,3.68,12.66-24.34c4-7.75,11.18-11.34,19.77-6.87a9.15,9.15,0,0,1,4.88,12,9.5,9.5,0,0,1-.63,1.23l-15.17,29.18,7.09,3.68,14.73-28.34c4.82-9.24,4.69-17.58-6.65-23.47a16.42,16.42,0,0,0-17.4.27l-.16-.09,11.83-22.75-7.09-3.69ZM757,272.52c-2.67,3.52-10.08,6.15-18.48-.2-3.89-2.95-6.36-7.17-3.18-11.37,3.58-4.72,8.3-3.49,13.07-1.07s9.68,6,13.51,6.12Zm4,16.21a6.74,6.74,0,0,1-2.23-1.1c-2-1.53-1-2.88,1.27-5.87l15.09-19.93c6.86-9.06.49-16.36-6.48-21.64-8.62-6.52-18.58-8.76-26.22.54l6.37,4.82c4.61-5.47,9.83-4.11,15.22,0,4,3.06,7.93,7.42,3.74,13-3.62,4.79-9.29-.19-17.35-4.18-7.55-3.72-15.49-6.78-22.12,2-5.84,7.71-2.46,15.23,4.58,20.56A21.56,21.56,0,0,0,751,281.19a6.38,6.38,0,0,0-.39,9,6.28,6.28,0,0,0,1.25,1.05,10.7,10.7,0,0,0,5.36,2.41Zm5.33,14.06,5.62,5.68,15.37-15.19c8.76-8.65,17.27-10.44,26.32-1.31l6-5.94a17.69,17.69,0,0,0-20.67-4.7l-.13-.13L806.1,274l-5.28-5.35Zm41.3,36.44c-6.25-8.47-.29-16.84,6.74-22,7.48-5.53,16.66-7.17,22.75,1.07s1.1,16.36-5.78,21.43c-7.33,5.42-17.46,8-23.7-.47m47.15-7-4.47-6-5.59,4.13-.11-.15,0,.08a15.86,15.86,0,0,0-2.09-16.44c-10-13.52-24.75-9.64-34-2.81-10.65,7.87-15.5,20.44-6.9,32.08A16.17,16.17,0,0,0,817.74,350l.09.15-2.57,1.9c-8.77,6.47-17.27,7.63-23.47-.78-3.12-4.23-5.59-11.05-1.13-14.81L785.92,330c-8.27,6.69-5,17.33.45,24.66,9.1,12.32,19.9,13.34,32.59,4Zm-.81,67.07a11.7,11.7,0,0,1-14-7.14,14.29,14.29,0,0,1,5.31-19.52,15,15,0,0,1,2.38-1.09l16,32.66c10.76-4.73,22.89-16.52,15.32-32-5.83-11.9-19.66-15.8-32.74-9.4C833,369.77,826.6,381.06,833.42,395a19.59,19.59,0,0,0,24,11.38Zm0-30.84a13.82,13.82,0,0,1,18.43,6.46,14,14,0,0,1-6.16,18.6Zm-6,54.58,11.93,39.19,6.74-2-9-29.67,43.15,17.91,5.23-1.59-11-36.15-6.75,2.11,8,26.25-42.42-17.74Zm21,84.05,0,8,30.25.2a13.11,13.11,0,0,1,12.33,13.06c0,7.15-4.57,9.09-10.85,9.05l-31.85-.2-.05,8,30.26.2a11.76,11.76,0,0,1,12.35,11.14,14.6,14.6,0,0,1,0,1.62c0,7.8-4.85,9.36-10.85,9.32l-31.85-.2,0,8,35.61.22c10,.07,14.13-6.39,14.2-16.06a18,18,0,0,0-8.18-15.26,12.89,12.89,0,0,0,8.31-13.31,17.89,17.89,0,0,0-8.17-15.74v-.19l7.15,0,0-7.52Zm20.53,88.76c-13.8-3.28-26.57,2.09-30.12,17.08s5.43,25.53,19.23,28.81,26.66-2.08,30.22-17.06-5.43-25.53-19.32-28.83m-2,8.23c11.52,2.74,16.35,10.84,14.42,19s-9.89,13.2-21.41,10.45-16.26-10.82-14.33-19S876,601.33,887.46,604m-37.21,46.49-3.25,7.3L872.07,669c8,3.55,12,10.48,8.06,19.32a9.15,9.15,0,0,1-11.67,5.6,9.47,9.47,0,0,1-1.26-.56L837.15,680l-3.25,7.3,29.19,13c9.53,4.23,17.83,3.61,23-8.07a16.91,16.91,0,0,0-1.65-18l.07-.17,7,3.13,3.06-6.86ZM807.39,782.6c9.59,6.55,19.21,3.08,26.26-5.35,9.88-11.83,5.9-24.94-5.28-34.28s-24.09-9.85-33.61,1.54c-7.83,9.38-7.18,19.59.76,28.55l5.22-6.27a12.56,12.56,0,0,1-.6-17.75l.07-.08c6.51-7.79,15.88-5.22,22.73.49,7.57,6.33,12.27,14.91,4.86,23.78a11.3,11.3,0,0,1-15.13,3Zm-33.45,52.24,6.29-5.51-16.74-39.18.14-.13,37,21.47,6.71-5.88L761.71,781l-6.43,5.63Zm-58.24,7.42-24.24,12.23,3.39,6.71L719.09,849ZM641.84,915.5l7.73-2-3.72-14.08,8-2.11-1.8-6.83-8,2.11-7.89-29.89c-2.27-8.63-5.88-9.42-13.88-7.32l-5.9,1.56,1.79,6.83,3.55-.94c4.82-1.27,6-.9,6.91,2.65l7.7,29.16L627,897.08l1.8,6.83,9.36-2.47Zm-47.1,1.37-6,.65L578,932.2l10.18-1.1Zm-24.17-37.46a11.72,11.72,0,0,1,11.51-10.8,14.31,14.31,0,0,1,16.75,14.26l-36.14,3.9c.8,11.73,7.74,27.13,24.84,25.3,13.17-1.42,21.55-13.1,20-27.57-2.06-14.71-10.5-24.58-25.91-22.9a19.58,19.58,0,0,0-18.89,18.66Zm29,10.48a14,14,0,0,1-27.74,3ZM545.91,865l-8-.15-1.28,67.07,8,.15ZM498.42,917.6l-5.95-.87-14.13,11.51,10.14,1.48Zm-14-42.31a11.71,11.71,0,0,1,13.84-7.57,14.31,14.31,0,0,1,13.1,15.42,14,14,0,0,1-.45,2.57l-36-5.26c-2.16,11.55.72,28.21,17.73,30.7,13.11,1.92,24.14-7.29,26.25-21.69,1.68-14.76-4-26.42-19.36-28.66a19.59,19.59,0,0,0-22.94,13.35Zm25.47,17.39a13.84,13.84,0,0,1-15.75,11.56,14,14,0,0,1-11.86-15.6Zm-94.74-17.94c-2.41,11.35,4.42,19,14.9,22.29,14.69,4.66,25.3-4,29.72-17.86s0-26-14.16-30.53c-11.64-3.7-20.84.77-26.13,11.51l7.79,2.48a12.56,12.56,0,0,1,16.21-7.27l.09,0c9.67,3.07,10.84,12.71,8.14,21.22-3,9.4-9.15,17-20.16,13.51A11.31,11.31,0,0,1,423,877.27Zm-3.87-37-7-3.77-12.94,24.19c-4.13,7.7-11.33,11.2-19.86,6.63a9.16,9.16,0,0,1-4.72-12,7.67,7.67,0,0,1,.64-1.2l15.52-29-7-3.77-15.08,28.16c-4.92,9.19-4.9,17.52,6.36,23.54a16.42,16.42,0,0,0,17.4-.06l.17.09-12.11,22.61,7,3.78Zm-84.61-33.45c2.71-3.49,10.15-6,18.48.41,3.86,3,6.26,7.22,3,11.4-3.61,4.67-8.35,3.39-13.08.91s-9.61-6.15-13.44-6.27ZM322.84,788a7,7,0,0,1,2.22,1.13c2,1.55,1,2.89-1.34,5.86l-15.33,19.74c-7,9-.68,16.36,6.22,21.72,8.54,6.62,18.48,9,26.22-.23l-6.31-4.89c-4.67,5.41-9.87,4-15.22-.16-4-3.11-7.84-7.52-3.58-13,3.69-4.75,9.28.31,17.29,4.39,7.51,3.8,15.41,7,22.15-1.72,5.93-7.63,2.64-15.2-4.34-20.61a21.53,21.53,0,0,0-18.11-4.55,6.39,6.39,0,0,0,.5-9,7.07,7.07,0,0,0-1.24-1.07,10.74,10.74,0,0,0-5.33-2.47Zm-5.1-14.2-5.54-5.75-15.55,15c-8.86,8.54-17.4,10.25-26.33,1l-6.09,5.87a17.66,17.66,0,0,0,20.58,5l.12.14-7.36,7.11,5.22,5.41Zm-40.79-37c6.15,8.54.09,16.84-7,22-7.55,5.43-16.75,7-22.73-1.34s-.91-16.38,6-21.37c7.4-5.33,17.56-7.78,23.7.76m-47.22,6.45,4.39,6.1,5.64-4.06.11.15-.06-.08a15.87,15.87,0,0,0,1.9,16.47c9.83,13.66,24.64,9.93,33.94,3.21,10.75-7.74,15.74-20.25,7.29-32a16.19,16.19,0,0,0-16-7.12l-.11-.15,2.59-1.87c8.84-6.37,17.36-7.4,23.45,1.06,3.08,4.27,5.47,11.12,1,14.83l4.67,6.48c8.34-6.59,5.16-17.27-.16-24.66-9-12.43-19.74-13.58-32.53-4.36Zm1.7-67.14a11.71,11.71,0,0,1,14,7.31,14.31,14.31,0,0,1-5.56,19.46,14.56,14.56,0,0,1-2.39,1.05l-15.58-32.85c-10.81,4.61-23.07,16.25-15.7,31.78,5.68,12,19.46,16,32.62,9.8,13.21-6.79,19.74-18,13.1-32A19.59,19.59,0,0,0,228,669ZM231.08,707a14,14,0,0,1-12-25.21Zm6.74-54.54-11.43-39.34-6.77,2,8.65,29.77-42.93-18.43-5.22,1.52,10.54,36.27,6.77-2-7.66-26.34L232,654.13Zm-20.23-84.34.25-8-30.23-1a13.1,13.1,0,0,1-12-13.35c.23-7.13,4.8-9,11.09-8.76l31.83,1,.26-8-30.24-1a11.76,11.76,0,0,1-12.06-11.46,10.65,10.65,0,0,1,.07-1.6c.24-7.8,5.08-9.24,11.09-9l31.83,1,.26-8-35.59-1.12c-10-.32-14.29,6-14.6,15.7a18,18,0,0,0,7.78,15.48,12.88,12.88,0,0,0-8.69,13.07,17.93,17.93,0,0,0,7.79,16v.19l-7.14-.23-.23,7.51Zm-18.83-89c13.76,3.45,26.59-1.76,30.34-16.71s-5.11-25.59-18.87-29-26.69,1.74-30.44,16.69,5.12,25.59,19,29.06m2.06-8.2c-11.49-2.88-16.22-11-14.19-19.15s10-13.07,21.54-10.2,16.12,11,14.09,19.13-10,13.07-21.45,10.22M238.7,425l3.33-7.26-24.92-11.46c-7.94-3.64-11.87-10.62-7.83-19.41A9.16,9.16,0,0,1,221,381.36a9.4,9.4,0,0,1,1.25.57l29.88,13.73,3.34-7.25-29-13.34c-9.47-4.35-17.78-3.83-23.11,7.78a16.91,16.91,0,0,0,1.43,18l-.08.17-7-3.21-3.13,6.82Zm44.61-131.44c-9.52-6.66-19.18-3.31-26.33,5.05-10,11.7-6.2,24.86,4.87,34.33s24,10.14,33.62-1.14c7.95-9.28,7.42-19.5-.4-28.56l-5.31,6.21a12.57,12.57,0,0,1,.39,17.76l-.07.08c-6.6,7.71-15.94,5-22.72-.77-7.49-6.43-12.1-15.05-4.58-23.83A11.31,11.31,0,0,1,278,299.79Zm34.74-52-6.43,5.37,15.8,39.56-.15.12-36.41-22.34L284,270l45,25.7,6.56-5.48Zm57.67-6.09L400,223.23l-3.39-6.71-24.24,12.23Z"/></g></g></g></g><circle class="cls-4" cx="543.55" cy="540" r="133.23"/></svg>