<svg id="Calque_1" data-name="Calque 1" xmlns="http://www.w3.org/2000/svg" viewBox="0 0 184.63 184.63"><defs><style>.cls-1{fill:#2b00ff;}.cls-2{fill:#fff;}</style></defs><circle class="cls-1" cx="92.32" cy="92.32" r="92.32"/><path class="cls-2" d="M317.73,296.47V223.26c.58,0,1.09-.07,1.61-.07,11.82,0,23.64,0,35.46,0a27,27,0,0,1,10.93,1.93c7.11,3.13,10.93,9.64,10.66,18.21-.14,4.47-1.47,8.4-5.31,11a37.68,37.68,0,0,1-4.67,2.34A11.77,11.77,0,0,1,375,260.9a17.35,17.35,0,0,1,3.61,8.94c.74,5.23.57,10.42-1.8,15.25-2.89,5.91-8,9.11-14.19,10.44a45.79,45.79,0,0,1-9.06.9c-11.29.1-22.59,0-33.88,0Zm16.76-13.17a5.2,5.2,0,0,0,.67.1c6.62,0,13.25.09,19.86,0,5.08-.1,7.79-2.79,8.29-7.86a18.64,18.64,0,0,0,.06-3c-.36-5.65-3.6-8.67-9.26-8.67H334.49Zm0-30.72h8.69c4.15,0,8.29,0,12.44-.12a4.69,4.69,0,0,0,4.56-3.49,14.55,14.55,0,0,0,.34-8.24c-.79-3.15-2.63-4.47-5.93-4.47h-20.1Z" transform="translate(-284.5 -168.27)"/><path class="cls-2" d="M435.9,273.63H397.75c-.71,5.84,2.79,10.77,8.65,12.26a17.88,17.88,0,0,0,9.94-.38c3.31-1.06,5.46-3.23,5.86-6.9.43,0,.78-.08,1.14-.08H435c0,5.72-1.77,10.51-6.21,14.09-3.89,3.14-8.48,4.51-13.36,5.05-5.9.65-11.77.46-17.41-1.6-8.26-3-13.21-9.08-15.21-17.51a32.09,32.09,0,0,1,4-25.12c4.41-7.12,11.15-10.61,19.34-11.38,5.44-.51,10.83-.19,15.9,2.13,7.61,3.49,11.36,9.89,12.8,17.76C435.56,265.66,435.56,269.52,435.9,273.63Zm-14.57-9.87c0-5.34-3.32-11-10.59-11.18a12.57,12.57,0,0,0-13.12,11.18Z" transform="translate(-284.5 -168.27)"/><path class="cls-2" d="M424.4,227.61v8.83h-30v-8.83Z" transform="translate(-284.5 -168.27)"/></svg>