<svg id="Calque_1" data-name="Calque 1" xmlns="http://www.w3.org/2000/svg" viewBox="0 0 184.63 184.63"><defs><style>.cls-1{fill:#2b00ff;}.cls-2{fill:#fff;}</style></defs><circle class="cls-1" cx="92.32" cy="92.32" r="92.32"/><path class="cls-2" d="M426.78,233.45V287.7a8.39,8.39,0,0,0-.18.84,24.55,24.55,0,0,1-24.05,21.95c-17.17.11-34.34.05-51.5,0a22.64,22.64,0,0,1-11.45-3.12c-8.41-4.9-12.65-12.32-12.71-22-.09-16.36,0-32.71,0-49.07a25.46,25.46,0,0,1,.18-3.6c1.39-10.16,6.88-17.11,16.49-20.68a45.34,45.34,0,0,1,6.15-1.41H404c.25,0,.5.13.75.17,10.24,1.44,17.21,7,20.73,16.7A49.06,49.06,0,0,1,426.78,233.45Zm-89.94,27q0,12.45,0,24.88a1.34,1.34,0,0,0,0,.2c.08,8.46,6.34,14.94,14.75,15q25.23.12,50.45,0a14.52,14.52,0,0,0,14.72-14.68q.14-25.27,0-50.54A14.52,14.52,0,0,0,402,220.62c-16.81-.07-33.62,0-50.44,0a14.3,14.3,0,0,0-7.85,2.27,14.5,14.5,0,0,0-6.89,12.81C336.8,244,336.85,252.21,336.84,260.47Z" transform="translate(-284.5 -168.27)"/><path class="cls-2" d="M376.81,285.55a25,25,0,1,1,25-24.92A24.75,24.75,0,0,1,376.81,285.55Zm0-40a15,15,0,1,0,15,15A14.77,14.77,0,0,0,376.79,245.57Z" transform="translate(-284.5 -168.27)"/><path class="cls-2" d="M406.8,235.6a5,5,0,1,1-4.94-5A5,5,0,0,1,406.8,235.6Z" transform="translate(-284.5 -168.27)"/></svg>