<svg id="Calque_1" data-name="Calque 1" xmlns="http://www.w3.org/2000/svg" viewBox="0 0 184.63 184.63"><defs><style>.cls-1{fill:#2b00ff;}.cls-2{fill:#fff;}</style></defs><circle class="cls-1" cx="92.32" cy="92.32" r="92.32"/><path class="cls-2" d="M422,301.8H403.07v-1.48q0-15.65,0-31.27c0-4.85-2.57-8.42-7-9.79-5.25-1.65-11.35,2.4-11.88,7.89-.08.82-.1,1.65-.11,2.47v32.16H365.24V245h18.89v6.87a61,61,0,0,1,5.25-4.63c8.43-5.92,18-4,24.73,1.7A21.37,21.37,0,0,1,422,265.85c0,11.7,0,23.4,0,35.1C422,301.19,422,301.44,422,301.8Z" transform="translate(-284.5 -168.27)"/><path class="cls-2" d="M352.37,301.8H333.58V245h18.79Z" transform="translate(-284.5 -168.27)"/><path class="cls-2" d="M354.32,222.82a11.38,11.38,0,0,1-22.75-.06,11.38,11.38,0,1,1,22.75.06Z" transform="translate(-284.5 -168.27)"/></svg>